<mxfile host="app.diagrams.net" modified="2022-05-21T03:18:42.303Z" agent="5.0 (Windows NT 10.0; Win64; x64) AppleWebKit/537.36 (KHTML, like Gecko) Chrome/101.0.4951.64 Safari/537.36 Edg/101.0.1210.53" etag="1v8amNPDTRjzLtHs3Vh9" version="17.1.2" type="github">
  <diagram id="C5RBs43oDa-KdzZeNtuy" name="Page-1">
    <mxGraphModel dx="1374" dy="754" grid="1" gridSize="10" guides="1" tooltips="1" connect="1" arrows="1" fold="1" page="1" pageScale="1" pageWidth="827" pageHeight="1169" math="0" shadow="0">
      <root>
        <mxCell id="WIyWlLk6GJQsqaUBKTNV-0" />
        <mxCell id="WIyWlLk6GJQsqaUBKTNV-1" parent="WIyWlLk6GJQsqaUBKTNV-0" />
        <mxCell id="5uJAy-TP2mM9x-UKd_4T-2" value="" style="edgeStyle=orthogonalEdgeStyle;rounded=0;orthogonalLoop=1;jettySize=auto;html=1;" edge="1" parent="WIyWlLk6GJQsqaUBKTNV-1" source="5uJAy-TP2mM9x-UKd_4T-0" target="5uJAy-TP2mM9x-UKd_4T-1">
          <mxGeometry relative="1" as="geometry" />
        </mxCell>
        <mxCell id="5uJAy-TP2mM9x-UKd_4T-22" value="" style="edgeStyle=orthogonalEdgeStyle;rounded=0;orthogonalLoop=1;jettySize=auto;html=1;" edge="1" parent="WIyWlLk6GJQsqaUBKTNV-1" source="5uJAy-TP2mM9x-UKd_4T-0" target="5uJAy-TP2mM9x-UKd_4T-21">
          <mxGeometry relative="1" as="geometry" />
        </mxCell>
        <mxCell id="5uJAy-TP2mM9x-UKd_4T-0" value="总样本" style="rounded=1;whiteSpace=wrap;html=1;" vertex="1" parent="WIyWlLk6GJQsqaUBKTNV-1">
          <mxGeometry x="180" y="120" width="120" height="60" as="geometry" />
        </mxCell>
        <mxCell id="5uJAy-TP2mM9x-UKd_4T-4" value="" style="edgeStyle=orthogonalEdgeStyle;rounded=0;orthogonalLoop=1;jettySize=auto;html=1;" edge="1" parent="WIyWlLk6GJQsqaUBKTNV-1" source="5uJAy-TP2mM9x-UKd_4T-1" target="5uJAy-TP2mM9x-UKd_4T-3">
          <mxGeometry relative="1" as="geometry" />
        </mxCell>
        <mxCell id="5uJAy-TP2mM9x-UKd_4T-40" style="edgeStyle=orthogonalEdgeStyle;rounded=0;orthogonalLoop=1;jettySize=auto;html=1;entryX=0;entryY=0.5;entryDx=0;entryDy=0;" edge="1" parent="WIyWlLk6GJQsqaUBKTNV-1" source="5uJAy-TP2mM9x-UKd_4T-1" target="5uJAy-TP2mM9x-UKd_4T-39">
          <mxGeometry relative="1" as="geometry">
            <Array as="points">
              <mxPoint x="440" y="50" />
            </Array>
          </mxGeometry>
        </mxCell>
        <mxCell id="5uJAy-TP2mM9x-UKd_4T-1" value="7000+样本" style="rounded=1;whiteSpace=wrap;html=1;" vertex="1" parent="WIyWlLk6GJQsqaUBKTNV-1">
          <mxGeometry x="380" y="120" width="120" height="60" as="geometry" />
        </mxCell>
        <mxCell id="5uJAy-TP2mM9x-UKd_4T-6" value="" style="edgeStyle=orthogonalEdgeStyle;rounded=0;orthogonalLoop=1;jettySize=auto;html=1;" edge="1" parent="WIyWlLk6GJQsqaUBKTNV-1" source="5uJAy-TP2mM9x-UKd_4T-3" target="5uJAy-TP2mM9x-UKd_4T-5">
          <mxGeometry relative="1" as="geometry" />
        </mxCell>
        <mxCell id="5uJAy-TP2mM9x-UKd_4T-25" style="edgeStyle=orthogonalEdgeStyle;rounded=0;orthogonalLoop=1;jettySize=auto;html=1;entryX=0.75;entryY=0;entryDx=0;entryDy=0;" edge="1" parent="WIyWlLk6GJQsqaUBKTNV-1" source="5uJAy-TP2mM9x-UKd_4T-3" target="5uJAy-TP2mM9x-UKd_4T-23">
          <mxGeometry relative="1" as="geometry">
            <Array as="points">
              <mxPoint x="640" y="230" />
              <mxPoint x="340" y="230" />
              <mxPoint x="340" y="370" />
              <mxPoint x="270" y="370" />
            </Array>
          </mxGeometry>
        </mxCell>
        <mxCell id="5uJAy-TP2mM9x-UKd_4T-3" value="标注辅助器" style="whiteSpace=wrap;html=1;rounded=1;fillColor=#fff2cc;strokeColor=#d6b656;" vertex="1" parent="WIyWlLk6GJQsqaUBKTNV-1">
          <mxGeometry x="580" y="120" width="120" height="60" as="geometry" />
        </mxCell>
        <mxCell id="5uJAy-TP2mM9x-UKd_4T-8" value="" style="edgeStyle=orthogonalEdgeStyle;rounded=0;orthogonalLoop=1;jettySize=auto;html=1;entryX=0.5;entryY=0;entryDx=0;entryDy=0;" edge="1" parent="WIyWlLk6GJQsqaUBKTNV-1" source="5uJAy-TP2mM9x-UKd_4T-5" target="5uJAy-TP2mM9x-UKd_4T-10">
          <mxGeometry relative="1" as="geometry">
            <mxPoint x="630" y="400" as="targetPoint" />
          </mxGeometry>
        </mxCell>
        <mxCell id="5uJAy-TP2mM9x-UKd_4T-5" value="辅助预测结果" style="whiteSpace=wrap;html=1;rounded=1;" vertex="1" parent="WIyWlLk6GJQsqaUBKTNV-1">
          <mxGeometry x="773" y="120" width="120" height="60" as="geometry" />
        </mxCell>
        <mxCell id="5uJAy-TP2mM9x-UKd_4T-11" style="edgeStyle=orthogonalEdgeStyle;rounded=0;orthogonalLoop=1;jettySize=auto;html=1;entryX=1;entryY=0.5;entryDx=0;entryDy=0;" edge="1" parent="WIyWlLk6GJQsqaUBKTNV-1" source="5uJAy-TP2mM9x-UKd_4T-9" target="5uJAy-TP2mM9x-UKd_4T-10">
          <mxGeometry relative="1" as="geometry" />
        </mxCell>
        <mxCell id="5uJAy-TP2mM9x-UKd_4T-9" value="Actor" style="shape=umlActor;verticalLabelPosition=bottom;verticalAlign=top;html=1;outlineConnect=0;" vertex="1" parent="WIyWlLk6GJQsqaUBKTNV-1">
          <mxGeometry x="1020" y="250" width="33" height="60" as="geometry" />
        </mxCell>
        <mxCell id="5uJAy-TP2mM9x-UKd_4T-15" style="edgeStyle=orthogonalEdgeStyle;rounded=0;orthogonalLoop=1;jettySize=auto;html=1;entryX=0.5;entryY=0;entryDx=0;entryDy=0;" edge="1" parent="WIyWlLk6GJQsqaUBKTNV-1" source="5uJAy-TP2mM9x-UKd_4T-10" target="5uJAy-TP2mM9x-UKd_4T-14">
          <mxGeometry relative="1" as="geometry" />
        </mxCell>
        <mxCell id="5uJAy-TP2mM9x-UKd_4T-10" value="审核后已标准样本" style="rounded=1;whiteSpace=wrap;html=1;" vertex="1" parent="WIyWlLk6GJQsqaUBKTNV-1">
          <mxGeometry x="773" y="250" width="120" height="60" as="geometry" />
        </mxCell>
        <mxCell id="5uJAy-TP2mM9x-UKd_4T-12" value="人工审核" style="text;html=1;strokeColor=none;fillColor=none;align=center;verticalAlign=middle;whiteSpace=wrap;rounded=0;" vertex="1" parent="WIyWlLk6GJQsqaUBKTNV-1">
          <mxGeometry x="920" y="250" width="60" height="30" as="geometry" />
        </mxCell>
        <mxCell id="5uJAy-TP2mM9x-UKd_4T-16" style="edgeStyle=orthogonalEdgeStyle;rounded=0;orthogonalLoop=1;jettySize=auto;html=1;entryX=1;entryY=0.5;entryDx=0;entryDy=0;dashed=1;" edge="1" parent="WIyWlLk6GJQsqaUBKTNV-1" source="5uJAy-TP2mM9x-UKd_4T-13" target="5uJAy-TP2mM9x-UKd_4T-14">
          <mxGeometry relative="1" as="geometry" />
        </mxCell>
        <mxCell id="5uJAy-TP2mM9x-UKd_4T-13" value="初始模型" style="rounded=1;whiteSpace=wrap;html=1;" vertex="1" parent="WIyWlLk6GJQsqaUBKTNV-1">
          <mxGeometry x="640" y="440" width="120" height="60" as="geometry" />
        </mxCell>
        <mxCell id="5uJAy-TP2mM9x-UKd_4T-18" style="edgeStyle=orthogonalEdgeStyle;rounded=0;orthogonalLoop=1;jettySize=auto;html=1;" edge="1" parent="WIyWlLk6GJQsqaUBKTNV-1" source="5uJAy-TP2mM9x-UKd_4T-14">
          <mxGeometry relative="1" as="geometry">
            <mxPoint x="460" y="540" as="targetPoint" />
          </mxGeometry>
        </mxCell>
        <mxCell id="5uJAy-TP2mM9x-UKd_4T-27" style="edgeStyle=orthogonalEdgeStyle;rounded=0;orthogonalLoop=1;jettySize=auto;html=1;entryX=0.75;entryY=0;entryDx=0;entryDy=0;dashed=1;" edge="1" parent="WIyWlLk6GJQsqaUBKTNV-1" source="5uJAy-TP2mM9x-UKd_4T-14" target="5uJAy-TP2mM9x-UKd_4T-20">
          <mxGeometry relative="1" as="geometry" />
        </mxCell>
        <mxCell id="5uJAy-TP2mM9x-UKd_4T-14" value="训练后模型" style="rounded=1;whiteSpace=wrap;html=1;" vertex="1" parent="WIyWlLk6GJQsqaUBKTNV-1">
          <mxGeometry x="400" y="440" width="120" height="60" as="geometry" />
        </mxCell>
        <mxCell id="5uJAy-TP2mM9x-UKd_4T-19" style="edgeStyle=orthogonalEdgeStyle;rounded=0;orthogonalLoop=1;jettySize=auto;html=1;" edge="1" parent="WIyWlLk6GJQsqaUBKTNV-1" source="5uJAy-TP2mM9x-UKd_4T-17">
          <mxGeometry relative="1" as="geometry">
            <mxPoint x="370" y="580" as="targetPoint" />
          </mxGeometry>
        </mxCell>
        <mxCell id="5uJAy-TP2mM9x-UKd_4T-17" value="测试准确&amp;gt;0.95?" style="rhombus;whiteSpace=wrap;html=1;" vertex="1" parent="WIyWlLk6GJQsqaUBKTNV-1">
          <mxGeometry x="420" y="540" width="80" height="80" as="geometry" />
        </mxCell>
        <mxCell id="5uJAy-TP2mM9x-UKd_4T-29" style="edgeStyle=orthogonalEdgeStyle;rounded=0;orthogonalLoop=1;jettySize=auto;html=1;dashed=1;" edge="1" parent="WIyWlLk6GJQsqaUBKTNV-1" source="5uJAy-TP2mM9x-UKd_4T-20" target="5uJAy-TP2mM9x-UKd_4T-28">
          <mxGeometry relative="1" as="geometry" />
        </mxCell>
        <mxCell id="5uJAy-TP2mM9x-UKd_4T-20" value="进行验证" style="rounded=1;whiteSpace=wrap;html=1;" vertex="1" parent="WIyWlLk6GJQsqaUBKTNV-1">
          <mxGeometry x="250" y="550" width="120" height="60" as="geometry" />
        </mxCell>
        <mxCell id="5uJAy-TP2mM9x-UKd_4T-24" value="" style="edgeStyle=orthogonalEdgeStyle;rounded=0;orthogonalLoop=1;jettySize=auto;html=1;" edge="1" parent="WIyWlLk6GJQsqaUBKTNV-1" source="5uJAy-TP2mM9x-UKd_4T-21" target="5uJAy-TP2mM9x-UKd_4T-23">
          <mxGeometry relative="1" as="geometry" />
        </mxCell>
        <mxCell id="5uJAy-TP2mM9x-UKd_4T-21" value="验证样本500个" style="whiteSpace=wrap;html=1;rounded=1;" vertex="1" parent="WIyWlLk6GJQsqaUBKTNV-1">
          <mxGeometry x="180" y="260" width="120" height="60" as="geometry" />
        </mxCell>
        <mxCell id="5uJAy-TP2mM9x-UKd_4T-26" style="edgeStyle=orthogonalEdgeStyle;rounded=0;orthogonalLoop=1;jettySize=auto;html=1;entryX=0.5;entryY=0;entryDx=0;entryDy=0;dashed=1;" edge="1" parent="WIyWlLk6GJQsqaUBKTNV-1" source="5uJAy-TP2mM9x-UKd_4T-23" target="5uJAy-TP2mM9x-UKd_4T-20">
          <mxGeometry relative="1" as="geometry" />
        </mxCell>
        <mxCell id="5uJAy-TP2mM9x-UKd_4T-23" value="验证样本的审核后标签" style="whiteSpace=wrap;html=1;rounded=1;" vertex="1" parent="WIyWlLk6GJQsqaUBKTNV-1">
          <mxGeometry x="180" y="400" width="120" height="60" as="geometry" />
        </mxCell>
        <mxCell id="5uJAy-TP2mM9x-UKd_4T-33" value="" style="edgeStyle=orthogonalEdgeStyle;rounded=0;orthogonalLoop=1;jettySize=auto;html=1;" edge="1" parent="WIyWlLk6GJQsqaUBKTNV-1" source="5uJAy-TP2mM9x-UKd_4T-28" target="5uJAy-TP2mM9x-UKd_4T-32">
          <mxGeometry relative="1" as="geometry" />
        </mxCell>
        <mxCell id="5uJAy-TP2mM9x-UKd_4T-28" value="验证准确&amp;gt;0.95?" style="rhombus;whiteSpace=wrap;html=1;" vertex="1" parent="WIyWlLk6GJQsqaUBKTNV-1">
          <mxGeometry x="270" y="650" width="80" height="80" as="geometry" />
        </mxCell>
        <mxCell id="5uJAy-TP2mM9x-UKd_4T-35" value="" style="edgeStyle=orthogonalEdgeStyle;rounded=0;orthogonalLoop=1;jettySize=auto;html=1;" edge="1" parent="WIyWlLk6GJQsqaUBKTNV-1" source="5uJAy-TP2mM9x-UKd_4T-32" target="5uJAy-TP2mM9x-UKd_4T-34">
          <mxGeometry relative="1" as="geometry" />
        </mxCell>
        <mxCell id="5uJAy-TP2mM9x-UKd_4T-32" value="对所有未人工验证的样本进行标签预测" style="rounded=1;whiteSpace=wrap;html=1;" vertex="1" parent="WIyWlLk6GJQsqaUBKTNV-1">
          <mxGeometry x="250" y="820" width="120" height="60" as="geometry" />
        </mxCell>
        <mxCell id="5uJAy-TP2mM9x-UKd_4T-34" value="结束" style="shape=parallelogram;perimeter=parallelogramPerimeter;whiteSpace=wrap;html=1;fixedSize=1;rounded=1;" vertex="1" parent="WIyWlLk6GJQsqaUBKTNV-1">
          <mxGeometry x="250" y="960" width="120" height="60" as="geometry" />
        </mxCell>
        <mxCell id="5uJAy-TP2mM9x-UKd_4T-37" style="edgeStyle=orthogonalEdgeStyle;rounded=0;orthogonalLoop=1;jettySize=auto;html=1;entryX=0.5;entryY=0;entryDx=0;entryDy=0;" edge="1" parent="WIyWlLk6GJQsqaUBKTNV-1" source="5uJAy-TP2mM9x-UKd_4T-36" target="5uJAy-TP2mM9x-UKd_4T-0">
          <mxGeometry relative="1" as="geometry" />
        </mxCell>
        <mxCell id="5uJAy-TP2mM9x-UKd_4T-36" value="开始" style="shape=parallelogram;perimeter=parallelogramPerimeter;whiteSpace=wrap;html=1;fixedSize=1;" vertex="1" parent="WIyWlLk6GJQsqaUBKTNV-1">
          <mxGeometry x="180" y="20" width="120" height="60" as="geometry" />
        </mxCell>
        <mxCell id="5uJAy-TP2mM9x-UKd_4T-41" style="edgeStyle=orthogonalEdgeStyle;rounded=0;orthogonalLoop=1;jettySize=auto;html=1;" edge="1" parent="WIyWlLk6GJQsqaUBKTNV-1" source="5uJAy-TP2mM9x-UKd_4T-39" target="5uJAy-TP2mM9x-UKd_4T-5">
          <mxGeometry relative="1" as="geometry" />
        </mxCell>
        <mxCell id="5uJAy-TP2mM9x-UKd_4T-39" value="100+用于标注样本" style="rounded=1;whiteSpace=wrap;html=1;" vertex="1" parent="WIyWlLk6GJQsqaUBKTNV-1">
          <mxGeometry x="570" y="20" width="120" height="60" as="geometry" />
        </mxCell>
      </root>
    </mxGraphModel>
  </diagram>
</mxfile>
